<?xml version="1.0" encoding="UTF-8"?><svg id="Layer_1" xmlns="http://www.w3.org/2000/svg" viewBox="0 0 15.16 15"><polygon points="8.48 13.75 2 13.75 2 12.25 6.98 12.25 6.98 1.25 13.16 1.25 13.16 2.75 8.48 2.75 8.48 13.75"/><path d="M13.17,4c-.17,0-.34-.02-.51-.07-.52-.14-.95-.46-1.22-.92-.27-.46-.34-1-.21-1.52.28-1.07,1.38-1.7,2.44-1.43.52.14.95.46,1.22.92.27.46.34,1,.21,1.52-.13.52-.46.95-.92,1.22-.31.18-.66.27-1.01.27Z"/><path d="M2,15c-.17,0-.34-.02-.51-.07-1.07-.28-1.71-1.37-1.43-2.44.28-1.07,1.38-1.7,2.44-1.43.52.13.95.46,1.22.92.27.46.34,1,.21,1.51h0c-.14.52-.46.95-.92,1.22-.31.18-.66.27-1.01.27Z"/></svg>