<?xml version="1.0" encoding="UTF-8"?><svg id="Layer_2" xmlns="http://www.w3.org/2000/svg" viewBox="0 0 689.2106 689.2106"><g id="Components"><g id="fd6d01d7-a746-4e5a-bc82-70b72e660907_6"><path d="M538.2122,29.4713L208.6622.6394C117.6595-7.3223,37.433,59.9957,29.4713,150.9984L.6394,480.5484c-7.9617,91.0027,59.3563,171.2292,150.359,179.1909l329.55,28.8318c91.0027,7.9617,171.2292-59.3563,179.191-150.359l28.8319-329.55c7.9617-91.0027-59.3564-171.2292-150.3591-179.1909ZM344.6054,454.8745c-60.9002,0-110.2696-49.3694-110.2696-110.2696s49.3694-110.2696,110.2696-110.2696,110.2696,49.3694,110.2696,110.2696-49.3694,110.2696-110.2696,110.2696Z" style="fill:#8f9194; isolation:isolate; opacity:.3;"/><path d="M655.9945,443.6577l-52.6573-298.6345c-13.2191-74.9687-84.7094-125.0268-159.6781-111.8077l-298.6345,52.6573c-74.9688,13.219-125.0269,84.7094-111.8078,159.6781l52.6573,298.6345c13.219,74.9687,84.7093,125.0268,159.6781,111.8078l298.6345-52.6573c74.9688-13.219,125.0269-84.7093,111.8078-159.678ZM344.6054,454.8745c-60.9002,0-110.2696-49.3694-110.2696-110.2696s49.3694-110.2696,110.2696-110.2696,110.2696,49.3694,110.2696,110.2696-49.3694,110.2696-110.2696,110.2696Z" style="fill:#8f9194;"/></g></g></svg>