<?xml version="1.0" encoding="UTF-8"?><svg id="Layer_2" xmlns="http://www.w3.org/2000/svg" viewBox="0 0 713.2106 713.2106"><g id="Components"><g id="_6e772379-4d61-4d07-9cb2-fcddfd9a2934_1"><g style="isolation:isolate; opacity:.3;"><path d="M206.0569,36c4.146,0,8.3564.1846,12.5137.5479l329.5503,28.832c37.627,3.292,71.7188,21.0391,95.9971,49.9736,24.2783,28.9336,35.8369,65.5898,32.5449,103.2168l-28.832,329.5498c-3.1025,35.4604-19.2842,68.1846-45.5645,92.1445-26.1328,23.8252-59.9106,36.9458-95.1133,36.9458-4.1465,0-8.3564-.1841-12.5127-.5479l-329.5503-28.832c-37.627-3.2915-71.7192-21.0391-95.998-49.9731-24.2783-28.9336-35.8359-65.5903-32.5439-103.2173l28.832-329.5503c3.1021-35.46,19.2842-68.1836,45.5645-92.1436,26.1318-23.8252,59.9102-36.9463,95.1123-36.9463M356.6052,490.8745c35.8647,0,69.583-13.9663,94.9434-39.3267,25.3599-25.3604,39.3267-59.0781,39.3267-94.9429s-13.9668-69.583-39.3267-94.9429-59.0786-39.3267-94.9434-39.3267-69.5825,13.9663-94.9429,39.3267c-25.3604,25.3599-39.3267,59.0781-39.3267,94.9429s13.9663,69.5825,39.3267,94.9429,59.0781,39.3267,94.9429,39.3267M206.0569,12c-84.8374,0-157.0527,64.8945-164.5854,150.998L12.6394,492.5484c-7.9619,91.0029,59.3564,171.2295,150.3589,179.1909l329.5503,28.832c4.8989.4287,9.7778.6392,14.6045.6392,84.8379,0,157.0537-64.8945,164.5859-150.9985l28.832-329.5498c7.9619-91.0029-59.3564-171.2295-150.3584-179.1904L220.6623,12.6397c-4.8989-.4287-9.7783-.6396-14.6055-.6396h0ZM356.6052,466.8745c-60.8999,0-110.2695-49.3696-110.2695-110.2695s49.3696-110.2695,110.2695-110.2695,110.27,49.3691,110.27,110.2695-49.3696,110.2695-110.27,110.2695h0Z" style="fill:#ff4800;"/></g><path d="M667.9945,455.6577l-52.6573-298.6345c-13.2191-74.9688-84.7094-125.0268-159.6781-111.8077l-298.6345,52.6573c-74.9688,13.219-125.0269,84.7094-111.8078,159.6781l52.6573,298.6345c13.219,74.9688,84.7093,125.0268,159.6781,111.8078l298.6345-52.6573c74.9687-13.219,125.0269-84.7093,111.8078-159.678ZM356.6054,466.8745c-60.9002,0-110.2696-49.3694-110.2696-110.2696s49.3694-110.2696,110.2696-110.2696,110.2696,49.3694,110.2696,110.2696-49.3694,110.2696-110.2696,110.2696Z" style="fill:#ff4f00;"/></g></g></svg>