<?xml version="1.0" encoding="UTF-8"?><svg id="Layer_2" xmlns="http://www.w3.org/2000/svg" viewBox="0 0 1000 306.1122"><g id="Components"><g id="_98966372-216a-4df6-b89a-03efa33bdc0a_5"><path d="M263.7908,51.2574L133.6634,3.8949c-33.367-12.1446-70.2614,5.0596-82.406,38.4266L3.8949,172.4488c-12.1446,33.367,5.0596,70.2614,38.4265,82.406l130.1274,47.3625c33.367,12.1446,70.2614-5.0596,82.406-38.4265l47.3625-130.1274c12.1446-33.367-5.0596-70.2614-38.4265-82.406ZM153.0561,192.6216c-21.8513,0-39.5653-17.714-39.5653-39.5653s17.714-39.5653,39.5653-39.5653,39.5653,17.714,39.5653,39.5653-17.714,39.5653-39.5653,39.5653Z" style="fill:#fff; isolation:isolate; opacity:.15;"/><circle cx="153.0561" cy="153.0563" r="14.837" style="fill:#fff; isolation:isolate; opacity:.3;"/><path d="M222.5233,39.9846l-118.2443-10.345c-32.6523-2.8567-61.438,21.2974-64.2947,53.9497l-10.345,118.2443c-2.8567,32.6523,21.2974,61.438,53.9496,64.2947l118.2443,10.345c32.6523,2.8567,61.438-21.2974,64.2947-53.9496l10.345-118.2443c2.8567-32.6523-21.2974-61.438-53.9497-64.2947ZM153.0561,192.6216c-21.8513,0-39.5653-17.714-39.5653-39.5653s17.714-39.5653,39.5653-39.5653,39.5653,17.714,39.5653,39.5653-17.714,39.5653-39.5653,39.5653Z" style="fill:#fff; isolation:isolate; opacity:.3;"/><path d="M264.7842,188.5969l-18.8937-107.1517c-4.7431-26.8992-30.3942-44.8603-57.2934-40.1172l-107.1517,18.8937c-26.8992,4.743-44.8603,30.3942-40.1173,57.2934l18.8937,107.1517c4.743,26.8992,30.3942,44.8603,57.2934,40.1173l107.1517-18.8937c26.8992-4.743,44.8603-30.3942,40.1173-57.2934ZM153.0561,192.6216c-21.8513,0-39.5653-17.714-39.5653-39.5653s17.714-39.5653,39.5653-39.5653,39.5653,17.714,39.5653,39.5653-17.714,39.5653-39.5653,39.5653Z" style="fill:#fff;"/><circle cx="153.0561" cy="153.0563" r="14.837" style="fill:#fff;"/><path d="M382.4355,127.5876v-17.9275h78.0591v17.9275h-28.0737v74.8222h-21.9113v-74.8222h-28.0741Z" style="fill:#fff;"/><path d="M493.4861,162.6955v39.7142h-21.7246v-92.7496h21.289v40.7102h-1.3697c1.7012-5.5186,4.3673-9.9693,7.9988-13.3522,3.6308-3.3818,8.5174-5.0732,14.6595-5.0732,4.8554,0,9.0882,1.0796,12.6987,3.237,3.6105,2.1583,6.4115,5.2085,8.4035,9.1504,1.992,3.943,2.9878,8.5281,2.9878,13.7565v44.3209h-21.7246v-40.0878c0-3.9003-.9958-6.9613-2.9878-9.1816-1.992-2.2194-4.7727-3.3302-8.3415-3.3302-2.3245,0-4.3884.5086-6.1936,1.5251-1.8052,1.0174-3.2058,2.4801-4.2016,4.3884-.9962,1.9093-1.4941,4.2328-1.4941,6.9718Z" style="fill:#fff;"/><path d="M572.2303,203.6547c-4.4413,0-8.3937-.7576-11.8585-2.272-3.4654-1.5144-6.1733-3.7972-8.1232-6.8474-1.9514-3.0502-2.9258-6.8569-2.9258-11.4226,0-3.8593.6742-7.1165,2.0232-9.7729,1.348-2.6553,3.2261-4.8134,5.6333-6.4739,2.4062-1.6591,5.1666-2.9255,8.2792-3.7969,3.1122-.8718,6.4319-1.4524,9.9597-1.7432,3.942-.3315,7.1165-.6945,9.5241-1.0894,2.4062-.3938,4.1704-.985,5.291-1.7741,1.1206-.7877,1.6805-1.8876,1.6805-3.299v-.2491c0-1.6181-.3732-2.9877-1.1202-4.108-.747-1.1206-1.8266-1.9706-3.237-2.5523-1.4114-.5806-3.1126-.8714-5.1046-.8714s-3.7657.2908-5.3222.8714c-1.5561.5817-2.8323,1.4114-3.8281,2.4899-.9962,1.0797-1.7022,2.345-2.1164,3.7969l-19.6705-2.5519c.9124-3.9838,2.7079-7.4794,5.3845-10.4888,2.6767-3.0083,6.1827-5.3533,10.5199-7.034,4.3358-1.6807,9.4092-2.5211,15.2194-2.5211,4.3158,0,8.351.5088,12.1076,1.5251,3.7552,1.0174,7.0437,2.5113,9.8661,4.4819,2.8217,1.9715,5.0208,4.3992,6.5983,7.283,1.5768,2.8848,2.3655,6.1938,2.3655,9.9285v47.2463h-20.4176v-9.7729h-.5599c-1.245,2.4072-2.8326,4.4195-4.7622,6.038-1.9296,1.6185-4.1704,2.8536-6.7227,3.7037-2.5523.8501-5.4469,1.2761-8.6835,1.2761ZM578.8286,189.2755c2.4479,0,4.6578-.4983,6.6291-1.4941,1.9706-.9958,3.5376-2.3655,4.6999-4.1084,1.1612-1.7429,1.7429-3.7552,1.7429-6.038v-6.6607c-.6223.3329-1.4005.644-2.3343.9338-.9335.2908-1.9608.5505-3.081.7782-1.1206.2285-2.2411.4355-3.3613.6223-1.1206.1868-2.2001.3637-3.237.5291-2.1164.2908-3.9216.7887-5.4157,1.4941-1.4941.706-2.6357,1.6185-3.4237,2.7387-.7887,1.1206-1.1826,2.4696-1.1826,4.0464,0,1.5358.3938,2.8323,1.1826,3.8904.788,1.0582,1.8462,1.8673,3.1746,2.4275,1.3277.5603,2.8634.8406,4.6067.8406Z" style="fill:#fff;"/><path d="M649.4803,109.6601v92.7496h-21.7246v-92.7496h21.7246Z" style="fill:#fff;"/><path d="M683.3433,203.6547c-4.4413,0-8.3937-.7576-11.8585-2.272-3.4654-1.5144-6.1733-3.7972-8.1232-6.8474-1.9514-3.0502-2.9258-6.8569-2.9258-11.4226,0-3.8593.6742-7.1165,2.0232-9.7729,1.348-2.6553,3.2261-4.8134,5.6333-6.4739,2.4062-1.6591,5.1666-2.9255,8.2792-3.7969,3.1122-.8718,6.4319-1.4524,9.9597-1.7432,3.942-.3315,7.1165-.6945,9.5241-1.0894,2.4062-.3938,4.1704-.985,5.291-1.7741,1.1206-.7877,1.6805-1.8876,1.6805-3.299v-.2491c0-1.6181-.3732-2.9877-1.1202-4.108-.747-1.1206-1.8266-1.9706-3.237-2.5523-1.4114-.5806-3.1126-.8714-5.1046-.8714s-3.7657.2908-5.3222.8714c-1.5561.5817-2.8323,1.4114-3.8281,2.4899-.9962,1.0797-1.7022,2.345-2.1164,3.7969l-19.6705-2.5519c.9124-3.9838,2.7079-7.4794,5.3845-10.4888,2.6767-3.0083,6.1827-5.3533,10.5199-7.034,4.3358-1.6807,9.4092-2.5211,15.2194-2.5211,4.3158,0,8.351.5088,12.1076,1.5251,3.7552,1.0174,7.0437,2.5113,9.8661,4.4819,2.8217,1.9715,5.0208,4.3992,6.5983,7.283,1.5768,2.8848,2.3655,6.1938,2.3655,9.9285v47.2463h-20.4176v-9.7729h-.5599c-1.245,2.4072-2.8326,4.4195-4.7622,6.038-1.9296,1.6185-4.1704,2.8536-6.7227,3.7037-2.5523.8501-5.4469,1.2761-8.6835,1.2761ZM689.9416,189.2755c2.4479,0,4.6578-.4983,6.6291-1.4941,1.9706-.9958,3.5376-2.3655,4.6999-4.1084,1.1612-1.7429,1.7429-3.7552,1.7429-6.038v-6.6607c-.6223.3329-1.4005.644-2.3343.9338-.9335.2908-1.9608.5505-3.081.7782-1.1206.2285-2.2411.4355-3.3613.6223-1.1206.1868-2.2001.3637-3.237.5291-2.1164.2908-3.9216.7887-5.4157,1.4941-1.4941.706-2.6357,1.6185-3.4237,2.7387-.7887,1.1206-1.1826,2.4696-1.1826,4.0464,0,1.5358.3938,2.8323,1.1826,3.8904.788,1.0582,1.8462,1.8673,3.1746,2.4275,1.3277.5603,2.8634.8406,4.6067.8406Z" style="fill:#fff;"/><path d="M738.8688,202.4098v-69.5934h19.9817l1.245,18.0521h-1.4941c1.0789-4.5227,2.6865-8.1749,4.8243-10.9557,2.1371-2.7799,4.627-4.8136,7.4697-6.1004,2.8421-1.2858,5.8408-1.9296,8.995-1.9296,4.9798,0,8.9947,1.598,12.0449,4.7931,3.0502,3.1961,5.4049,8.4249,7.0654,15.6865h-2.4279c1.1206-4.8553,2.8841-8.7974,5.2913-11.8271,2.4062-3.0288,5.2286-5.229,8.4656-6.5983,3.237-1.3695,6.5983-2.0542,10.0844-2.0542,4.3572,0,8.2059.9443,11.5469,2.8323,3.34,1.8888,5.9651,4.586,7.8744,8.0922,1.9083,3.5073,2.8634,7.7296,2.8634,12.6673v46.9352h-21.6625v-42.0174c0-3.5271-.924-6.2034-2.7699-8.03-1.8469-1.8256-4.2019-2.7389-7.0654-2.7389-2.0337,0-3.8078.4571-5.3222,1.3693-1.5151.9133-2.6669,2.1894-3.4546,3.8283-.7891,1.6399-1.1829,3.5793-1.1829,5.8201v41.7686h-20.8531v-42.3289c0-3.1949-.8928-5.7363-2.6767-7.6251-1.7846-1.8879-4.1298-2.8323-7.0338-2.8323-1.992,0-3.7457.4571-5.2601,1.3693-1.5155.9133-2.698,2.2099-3.5481,3.8903-.8511,1.6808-1.2761,3.7457-1.2761,6.1939v41.3327h-21.7246Z" style="fill:#fff;"/><path d="M881.2301,203.2812c-4.8551,0-9.0987-1.0785-12.7295-3.237-3.6319-2.157-6.4427-5.2072-8.4347-9.1502-1.992-3.9423-2.9878-8.5283-2.9878-13.7569v-44.3207h21.7246v40.0876c0,3.9013,1.0056,6.9624,3.019,9.1818,2.0123,2.2205,4.7826,3.3302,8.3103,3.3302,2.4062,0,4.4914-.5077,6.2556-1.5249,1.7635-1.0165,3.1438-2.4899,4.1396-4.4195.9962-1.93,1.4941-4.2426,1.4941-6.9406v-39.7144h21.7246v69.5934h-20.4172l-.3735-17.5541h.9335c-1.7429,5.5615-4.4409,10.022-8.092,13.3834-3.6522,3.3617-8.5076,5.0422-14.5663,5.0422Z" style="fill:#fff;"/><path d="M967.382,203.7171c-5.935,0-11.1843-.8406-15.7489-2.5211-4.5657-1.6808-8.2792-4.1084-11.1426-7.283-2.8634-3.1749-4.7104-6.9816-5.5401-11.4226l20.1684-3.1749c.8714,3.0299,2.3441,5.3127,4.4195,6.8474,2.0747,1.5358,4.9585,2.3032,8.6527,2.3032,3.0288,0,5.4157-.5291,7.1586-1.5873,1.7429-1.0582,2.6143-2.4587,2.6143-4.2016,0-1.6185-.6952-2.9149-2.0852-3.8908-1.3911-.9745-3.5383-1.7527-6.4427-2.334l-12.1384-2.3655c-6.8891-1.3277-12.0449-3.662-15.4686-7.003-3.4237-3.34-5.1354-7.6877-5.1354-13.041,0-4.647,1.2544-8.6105,3.7657-11.8891,2.5106-3.2778,6.0587-5.7989,10.6447-7.5633,4.5849-1.7634,9.9908-2.6455,16.2156-2.6455,5.8096,0,10.8623.7781,15.1574,2.3343,4.2952,1.5561,7.7595,3.7767,10.3955,6.6605,2.6346,2.8848,4.3467,6.3182,5.1354,10.3022l-19.1726,3.05c-.6223-2.3235-1.8984-4.1394-3.8281-5.4466-1.9296-1.3073-4.368-1.9608-7.3142-1.9608-2.6147,0-4.8243.5291-6.6295,1.5873-1.8052,1.0582-2.7079,2.4801-2.7079,4.264,0,1.411.5603,2.6455,1.6808,3.7037,1.1202,1.0582,3.1746,1.8781,6.1624,2.4587l13.321,2.4899c6.8884,1.3287,12.0238,3.5278,15.4066,6.5983,3.382,3.0716,5.0734,7.1383,5.0734,12.2008,0,4.7724-1.4005,8.9228-4.2019,12.4496-2.8011,3.5278-6.6509,6.256-11.5469,8.1856-4.8971,1.9296-10.5199,2.8946-16.8691,2.8946Z" style="fill:#fff;"/></g></g></svg>