<?xml version="1.0" encoding="UTF-8"?><svg id="Layer_2" xmlns="http://www.w3.org/2000/svg" viewBox="0 0 853.1426 853.1426"><g id="Components"><g id="_7e00ea53-8c47-459a-85b5-c244c4bfbf7d_5"><path d="M735.1917,142.8556L372.5233,10.8551c-92.9946-33.8473-195.8204,14.1011-229.6677,107.0958L10.8551,480.6193c-33.8473,92.9946,14.1011,195.8204,107.0958,229.6677l362.6684,132.0005c92.9947,33.8474,195.8204-14.1011,229.6677-107.0958l132.0005-362.6683c33.8474-92.9947-14.1011-195.8204-107.0958-229.6677ZM426.5713,536.8413c-60.9002,0-110.2696-49.3694-110.2696-110.2696s49.3694-110.2696,110.2696-110.2696,110.2696,49.3694,110.2696,110.2696-49.3694,110.2696-110.2696,110.2696Z" style="fill:#fff; isolation:isolate; opacity:.15;"/><circle cx="426.5713" cy="426.5718" r="41.3511" style="fill:#fff; isolation:isolate; opacity:.3;"/><path d="M620.1781,111.4381l-329.55-28.8319c-91.0027-7.9617-171.2292,59.3563-179.1909,150.3591l-28.8319,329.55c-7.9617,91.0027,59.3563,171.2292,150.359,179.1909l329.55,28.8318c91.0027,7.9617,171.2292-59.3563,179.191-150.359l28.8319-329.55c7.9617-91.0027-59.3564-171.2292-150.3591-179.1909ZM426.5713,536.8413c-60.9002,0-110.2696-49.3694-110.2696-110.2696s49.3694-110.2696,110.2696-110.2696,110.2696,49.3694,110.2696,110.2696-49.3694,110.2696-110.2696,110.2696Z" style="fill:#fff; isolation:isolate; opacity:.3;"/><path d="M737.9604,525.6245l-52.6573-298.6345c-13.2191-74.9687-84.7094-125.0268-159.6781-111.8077l-298.6345,52.6573c-74.9688,13.219-125.0269,84.7094-111.8078,159.6781l52.6573,298.6345c13.219,74.9687,84.7093,125.0268,159.6781,111.8078l298.6345-52.6573c74.9687-13.219,125.0269-84.7093,111.8078-159.678ZM426.5713,536.8413c-60.9002,0-110.2696-49.3694-110.2696-110.2696s49.3694-110.2696,110.2696-110.2696,110.2696,49.3694,110.2696,110.2696-49.3694,110.2696-110.2696,110.2696Z" style="fill:#fff;"/><circle cx="426.5713" cy="426.5718" r="41.3511" style="fill:#fff;"/></g></g></svg>